<svg width="15" height="15" viewBox="0 0 15 15" fill="none" xmlns="http://www.w3.org/2000/svg">
<path d="M11.4273 4.02578C10.4453 3.04141 9.1375 2.5 7.74766 2.5C4.87891 2.5 2.54453 4.83437 2.54453 7.70312C2.54453 8.61953 2.78359 9.51484 3.23828 10.3047L2.5 13L5.25859 12.2758C6.01797 12.6906 6.87344 12.9086 7.74531 12.9086H7.74766C10.6141 12.9086 13 10.5742 13 7.70547C13 6.31563 12.4094 5.01016 11.4273 4.02578ZM7.74766 12.032C6.96953 12.032 6.20781 11.8234 5.54453 11.4297L5.3875 11.3359L3.75156 11.7648L4.1875 10.1688L4.08438 10.0047C3.65078 9.31563 3.42344 8.52109 3.42344 7.70312C3.42344 5.31953 5.36406 3.37891 7.75 3.37891C8.90547 3.37891 9.99063 3.82891 10.8063 4.64688C11.6219 5.46484 12.1234 6.55 12.1211 7.70547C12.1211 10.0914 10.1312 12.032 7.74766 12.032ZM10.1195 8.79297C9.99063 8.72734 9.35078 8.41328 9.23125 8.37109C9.11172 8.32656 9.025 8.30547 8.93828 8.43672C8.85156 8.56797 8.60313 8.85859 8.52578 8.94766C8.45078 9.03438 8.37344 9.04609 8.24453 8.98047C7.48047 8.59844 6.97891 8.29844 6.475 7.43359C6.34141 7.20391 6.60859 7.22031 6.85703 6.72344C6.89922 6.63672 6.87812 6.56172 6.84531 6.49609C6.8125 6.43047 6.55234 5.79063 6.44453 5.53047C6.33906 5.27734 6.23125 5.3125 6.15156 5.30781C6.07656 5.30313 5.98984 5.30313 5.90313 5.30313C5.81641 5.30313 5.67578 5.33594 5.55625 5.46484C5.43672 5.59609 5.10156 5.91016 5.10156 6.55C5.10156 7.18984 5.56797 7.80859 5.63125 7.89531C5.69688 7.98203 6.54766 9.29453 7.85312 9.85938C8.67812 10.2156 9.00156 10.2461 9.41406 10.1852C9.66484 10.1477 10.1828 9.87109 10.2906 9.56641C10.3984 9.26172 10.3984 9.00156 10.3656 8.94766C10.3352 8.88906 10.2484 8.85625 10.1195 8.79297Z" fill="black"/>
</svg>
