<svg width="15" height="15" viewBox="0 0 15 15" fill="none" xmlns="http://www.w3.org/2000/svg">
<path d="M7.525 1.25C4.1125 1.25 1.33125 4.03125 1.33125 7.44375C1.33125 8.5375 1.61875 9.60625 2.15625 10.5438L1.25 13.75L4.53125 12.8875C5.44864 13.3907 6.47866 13.6531 7.525 13.65H7.53125C10.9438 13.65 13.7188 10.8687 13.7188 7.4625C13.7188 5.80625 13.075 4.25625 11.9062 3.0875C10.7375 1.91875 9.1875 1.25 7.525 1.25ZM7.525 12.5375H7.51875C6.59979 12.5385 5.69745 12.2924 4.90625 11.825L4.71875 11.7125L2.76875 12.225L3.2875 10.325L3.1625 10.1312C2.64432 9.3079 2.37117 8.35408 2.375 7.38125C2.375 4.54375 4.6875 2.23125 7.53125 2.23125C8.90625 2.23125 10.2 2.76875 11.175 3.74375C11.6545 4.22137 12.0345 4.78934 12.293 5.41478C12.5516 6.04022 12.6835 6.71073 12.6813 7.3875C12.6813 10.2312 10.3687 12.5375 7.525 12.5375ZM10.35 8.68125C10.1937 8.60625 9.43125 8.23125 9.2875 8.175C9.14375 8.125 9.04375 8.1 8.9375 8.25625C8.8375 8.40625 8.5375 8.75625 8.45 8.8625C8.3625 8.9625 8.26875 8.975 8.11875 8.9C7.9625 8.825 7.46875 8.6625 6.88125 8.1375C6.425 7.73125 6.11875 7.23125 6.025 7.075C5.9375 6.925 6.0125 6.84375 6.09375 6.7625C6.1625 6.69375 6.25 6.58125 6.325 6.49375C6.4 6.4 6.425 6.3375 6.475 6.2375C6.525 6.1375 6.5 6.04375 6.4625 5.96875C6.425 5.89375 6.1125 5.11875 5.98125 4.80625C5.85625 4.50625 5.725 4.54375 5.63125 4.5375H5.33125C5.23125 4.5375 5.06875 4.575 4.93125 4.73125C4.79375 4.88125 4.4 5.25 4.4 6C4.4 6.74375 4.94375 7.46875 5.01875 7.56875C5.09375 7.66875 6.0875 9.2 7.60625 9.85625C7.96875 10.0125 8.25 10.1063 8.46875 10.175C8.83125 10.2875 9.1625 10.275 9.425 10.2375C9.71875 10.1937 10.3438 9.8625 10.4688 9.49375C10.6 9.13125 10.6 8.81875 10.5625 8.75C10.525 8.68125 10.4187 8.64375 10.2625 8.56875L10.35 8.68125Z" fill="#1A1A1A"/>
</svg>
